<mxfile host="app.diagrams.net" agent="Mozilla/5.0 (Windows NT 10.0; Win64; x64) AppleWebKit/537.36 (KHTML, like Gecko) Chrome/128.0.0.0 Safari/537.36" version="24.7.12">
  <diagram name="Page-1" id="Tv5fHizMDX_LoWI_HVtL">
    <mxGraphModel dx="1046" dy="1828" grid="1" gridSize="10" guides="1" tooltips="1" connect="1" arrows="1" fold="1" page="1" pageScale="1" pageWidth="850" pageHeight="1100" math="0" shadow="0">
      <root>
        <mxCell id="0" />
        <mxCell id="1" parent="0" />
        <mxCell id="2qr27qubsBFa9_mdYsr5-1" value="Actor" style="shape=umlActor;verticalLabelPosition=bottom;verticalAlign=top;html=1;outlineConnect=0;" vertex="1" parent="1">
          <mxGeometry x="40" y="200" width="30" height="60" as="geometry" />
        </mxCell>
        <mxCell id="2qr27qubsBFa9_mdYsr5-2" value="" style="swimlane;startSize=0;" vertex="1" parent="1">
          <mxGeometry x="110" y="-60" width="640" height="950" as="geometry" />
        </mxCell>
        <mxCell id="2qr27qubsBFa9_mdYsr5-11" value="Create New Account" style="ellipse;whiteSpace=wrap;html=1;" vertex="1" parent="2qr27qubsBFa9_mdYsr5-2">
          <mxGeometry x="55" y="20" width="140" height="70" as="geometry" />
        </mxCell>
        <mxCell id="2qr27qubsBFa9_mdYsr5-13" value="Withdraw from event" style="ellipse;whiteSpace=wrap;html=1;" vertex="1" parent="2qr27qubsBFa9_mdYsr5-2">
          <mxGeometry x="350" y="590" width="140" height="70" as="geometry" />
        </mxCell>
        <mxCell id="2qr27qubsBFa9_mdYsr5-20" value="&lt;br&gt;extension point&lt;br&gt;&lt;div&gt;Forget Password&lt;/div&gt;" style="html=1;shape=mxgraph.sysml.useCaseExtPt;whiteSpace=wrap;align=center;" vertex="1" parent="2qr27qubsBFa9_mdYsr5-2">
          <mxGeometry x="40" y="120" width="170" height="100" as="geometry" />
        </mxCell>
        <mxCell id="2qr27qubsBFa9_mdYsr5-21" value="&lt;span style=&quot;font-weight: 400; text-wrap: wrap;&quot;&gt;Login to Account&lt;/span&gt;" style="resizable=0;html=1;verticalAlign=middle;align=center;labelBackgroundColor=none;fontStyle=1;" connectable="0" vertex="1" parent="2qr27qubsBFa9_mdYsr5-20">
          <mxGeometry x="85" y="21.25" as="geometry">
            <mxPoint x="-4" y="-1" as="offset" />
          </mxGeometry>
        </mxCell>
        <mxCell id="2qr27qubsBFa9_mdYsr5-32" value="&lt;span style=&quot;font-weight: normal;&quot;&gt;Change Password&lt;/span&gt;" style="shape=ellipse;html=1;strokeWidth=1;fontStyle=1;whiteSpace=wrap;align=center;perimeter=ellipsePerimeter;" vertex="1" parent="2qr27qubsBFa9_mdYsr5-2">
          <mxGeometry x="390" y="140" width="120" height="60" as="geometry" />
        </mxCell>
        <mxCell id="2qr27qubsBFa9_mdYsr5-33" value="&amp;lt;&amp;lt;extend&amp;gt;&amp;gt;" style="edgeStyle=none;html=1;startArrow=open;endArrow=none;startSize=12;verticalAlign=bottom;dashed=1;labelBackgroundColor=none;rounded=0;exitX=1;exitY=0.5;exitDx=0;exitDy=0;exitPerimeter=0;entryX=0;entryY=0.5;entryDx=0;entryDy=0;" edge="1" parent="2qr27qubsBFa9_mdYsr5-2" source="2qr27qubsBFa9_mdYsr5-20" target="2qr27qubsBFa9_mdYsr5-32">
          <mxGeometry width="160" relative="1" as="geometry">
            <mxPoint x="-70" y="380" as="sourcePoint" />
            <mxPoint x="90" y="380" as="targetPoint" />
          </mxGeometry>
        </mxCell>
        <mxCell id="2qr27qubsBFa9_mdYsr5-34" value="&amp;lt;&amp;lt;extend&amp;gt;&amp;gt;" style="edgeStyle=none;html=1;startArrow=open;endArrow=none;startSize=12;verticalAlign=bottom;dashed=1;labelBackgroundColor=none;rounded=0;exitX=1;exitY=0.5;exitDx=0;exitDy=0;exitPerimeter=0;entryX=0.021;entryY=0.558;entryDx=0;entryDy=0;entryPerimeter=0;" edge="1" parent="2qr27qubsBFa9_mdYsr5-2" source="2qr27qubsBFa9_mdYsr5-35" target="2qr27qubsBFa9_mdYsr5-66">
          <mxGeometry width="160" relative="1" as="geometry">
            <mxPoint x="-70" y="780" as="sourcePoint" />
            <mxPoint x="90" y="780" as="targetPoint" />
          </mxGeometry>
        </mxCell>
        <mxCell id="2qr27qubsBFa9_mdYsr5-35" value="&lt;br&gt;extension point&lt;br&gt;&lt;div&gt;Find a suitable event&lt;/div&gt;" style="html=1;shape=mxgraph.sysml.useCaseExtPt;whiteSpace=wrap;align=center;" vertex="1" parent="2qr27qubsBFa9_mdYsr5-2">
          <mxGeometry x="35" y="690" width="220" height="120" as="geometry" />
        </mxCell>
        <mxCell id="2qr27qubsBFa9_mdYsr5-36" value="&lt;span style=&quot;font-weight: 400; text-wrap: wrap;&quot;&gt;Display Event List&lt;/span&gt;" style="resizable=0;html=1;verticalAlign=middle;align=center;labelBackgroundColor=none;fontStyle=1;" connectable="0" vertex="1" parent="2qr27qubsBFa9_mdYsr5-35">
          <mxGeometry x="104" y="24" as="geometry">
            <mxPoint x="2" y="-3" as="offset" />
          </mxGeometry>
        </mxCell>
        <mxCell id="2qr27qubsBFa9_mdYsr5-37" value="Retrieve Location from user" style="ellipse;whiteSpace=wrap;html=1;" vertex="1" parent="2qr27qubsBFa9_mdYsr5-2">
          <mxGeometry x="470" y="390" width="140" height="70" as="geometry" />
        </mxCell>
        <mxCell id="2qr27qubsBFa9_mdYsr5-41" value="Retrieve the list of basketball court locations" style="ellipse;whiteSpace=wrap;html=1;" vertex="1" parent="2qr27qubsBFa9_mdYsr5-2">
          <mxGeometry x="470" y="270" width="150" height="70" as="geometry" />
        </mxCell>
        <mxCell id="2qr27qubsBFa9_mdYsr5-42" value="Retrieve weather forecast and Ultraviolet Index data" style="ellipse;whiteSpace=wrap;html=1;" vertex="1" parent="2qr27qubsBFa9_mdYsr5-2">
          <mxGeometry x="310" y="860" width="180" height="70" as="geometry" />
        </mxCell>
        <mxCell id="2qr27qubsBFa9_mdYsr5-46" value="View Event Information" style="ellipse;whiteSpace=wrap;html=1;" vertex="1" parent="2qr27qubsBFa9_mdYsr5-2">
          <mxGeometry x="55" y="860" width="140" height="70" as="geometry" />
        </mxCell>
        <mxCell id="2qr27qubsBFa9_mdYsr5-49" value="&amp;lt;&amp;lt;include&amp;gt;&amp;gt;" style="edgeStyle=none;html=1;endArrow=open;verticalAlign=bottom;dashed=1;labelBackgroundColor=none;rounded=0;exitX=1;exitY=0.5;exitDx=0;exitDy=0;entryX=0;entryY=0.5;entryDx=0;entryDy=0;" edge="1" parent="2qr27qubsBFa9_mdYsr5-2" source="2qr27qubsBFa9_mdYsr5-46" target="2qr27qubsBFa9_mdYsr5-42">
          <mxGeometry width="160" relative="1" as="geometry">
            <mxPoint x="30" y="830" as="sourcePoint" />
            <mxPoint x="190" y="830" as="targetPoint" />
          </mxGeometry>
        </mxCell>
        <mxCell id="2qr27qubsBFa9_mdYsr5-64" value="&amp;lt;&amp;lt;include&amp;gt;&amp;gt;" style="edgeStyle=none;html=1;endArrow=open;verticalAlign=bottom;dashed=1;labelBackgroundColor=none;rounded=0;entryX=0;entryY=0.5;entryDx=0;entryDy=0;exitX=1;exitY=0.5;exitDx=0;exitDy=0;exitPerimeter=0;" edge="1" parent="2qr27qubsBFa9_mdYsr5-2" source="2qr27qubsBFa9_mdYsr5-70" target="2qr27qubsBFa9_mdYsr5-41">
          <mxGeometry width="160" relative="1" as="geometry">
            <mxPoint x="269.99658536585383" y="330" as="sourcePoint" />
            <mxPoint x="290.91" y="672.98" as="targetPoint" />
          </mxGeometry>
        </mxCell>
        <mxCell id="2qr27qubsBFa9_mdYsr5-66" value="&lt;br&gt;extension points&lt;br&gt;User uses current location to find nearby basketball courts" style="html=1;shape=mxgraph.sysml.useCaseExtPt;whiteSpace=wrap;align=center;" vertex="1" parent="2qr27qubsBFa9_mdYsr5-2">
          <mxGeometry x="440" y="680" width="190" height="120" as="geometry" />
        </mxCell>
        <mxCell id="2qr27qubsBFa9_mdYsr5-67" value="Filter Event" style="resizable=0;html=1;verticalAlign=middle;align=center;labelBackgroundColor=none;fontStyle=1;" connectable="0" vertex="1" parent="2qr27qubsBFa9_mdYsr5-66">
          <mxGeometry x="95" y="25.5" as="geometry" />
        </mxCell>
        <mxCell id="2qr27qubsBFa9_mdYsr5-68" value="&amp;lt;&amp;lt;extend&amp;gt;&amp;gt;" style="edgeStyle=none;html=1;startArrow=open;endArrow=none;startSize=12;verticalAlign=bottom;dashed=1;labelBackgroundColor=none;rounded=0;exitX=0.5;exitY=0;exitDx=0;exitDy=0;exitPerimeter=0;entryX=0.5;entryY=1;entryDx=0;entryDy=0;" edge="1" parent="2qr27qubsBFa9_mdYsr5-2" source="2qr27qubsBFa9_mdYsr5-66" target="2qr27qubsBFa9_mdYsr5-37">
          <mxGeometry width="160" relative="1" as="geometry">
            <mxPoint x="100" y="570" as="sourcePoint" />
            <mxPoint x="260" y="570" as="targetPoint" />
          </mxGeometry>
        </mxCell>
        <mxCell id="2qr27qubsBFa9_mdYsr5-70" value="&lt;br&gt;extension points&lt;div&gt;User wants to choose a specific basketball courts using current location&lt;/div&gt;" style="html=1;shape=mxgraph.sysml.useCaseExtPt;whiteSpace=wrap;align=center;" vertex="1" parent="2qr27qubsBFa9_mdYsr5-2">
          <mxGeometry x="20" y="250" width="250" height="110" as="geometry" />
        </mxCell>
        <mxCell id="2qr27qubsBFa9_mdYsr5-71" value="Create Event" style="resizable=0;html=1;verticalAlign=middle;align=center;labelBackgroundColor=none;fontStyle=1;" connectable="0" vertex="1" parent="2qr27qubsBFa9_mdYsr5-70">
          <mxGeometry x="125.00000000000003" y="23.374999999999996" as="geometry">
            <mxPoint x="8" y="2" as="offset" />
          </mxGeometry>
        </mxCell>
        <mxCell id="2qr27qubsBFa9_mdYsr5-72" value="&amp;lt;&amp;lt;extend&amp;gt;&amp;gt;" style="edgeStyle=none;html=1;startArrow=open;endArrow=none;startSize=12;verticalAlign=bottom;dashed=1;labelBackgroundColor=none;rounded=0;entryX=0.5;entryY=0;entryDx=0;entryDy=0;exitX=0.855;exitY=0.855;exitDx=0;exitDy=0;exitPerimeter=0;" edge="1" parent="2qr27qubsBFa9_mdYsr5-2" source="2qr27qubsBFa9_mdYsr5-70" target="2qr27qubsBFa9_mdYsr5-37">
          <mxGeometry width="160" relative="1" as="geometry">
            <mxPoint x="100" y="490" as="sourcePoint" />
            <mxPoint x="260" y="490" as="targetPoint" />
          </mxGeometry>
        </mxCell>
        <mxCell id="2qr27qubsBFa9_mdYsr5-73" value="extension point&lt;div&gt;User wants to withdraw from event&lt;/div&gt;" style="html=1;shape=mxgraph.sysml.useCaseExtPt;whiteSpace=wrap;align=center;" vertex="1" parent="2qr27qubsBFa9_mdYsr5-2">
          <mxGeometry x="15" y="520" width="250" height="110" as="geometry" />
        </mxCell>
        <mxCell id="2qr27qubsBFa9_mdYsr5-74" value="Join Event" style="resizable=0;html=1;verticalAlign=middle;align=center;labelBackgroundColor=none;fontStyle=1;" connectable="0" vertex="1" parent="2qr27qubsBFa9_mdYsr5-73">
          <mxGeometry x="125.00000000000003" y="23.374999999999996" as="geometry">
            <mxPoint x="8" y="2" as="offset" />
          </mxGeometry>
        </mxCell>
        <mxCell id="2qr27qubsBFa9_mdYsr5-76" value="extension point&lt;div style=&quot;line-height: 120%;&quot;&gt;User wants to edit own profile&lt;/div&gt;" style="html=1;shape=mxgraph.sysml.useCaseExtPt;whiteSpace=wrap;align=center;" vertex="1" parent="2qr27qubsBFa9_mdYsr5-2">
          <mxGeometry x="32" y="380" width="198" height="90" as="geometry" />
        </mxCell>
        <mxCell id="2qr27qubsBFa9_mdYsr5-77" value="View User&#39;s Profile" style="resizable=0;html=1;verticalAlign=middle;align=center;labelBackgroundColor=none;fontStyle=1;" connectable="0" vertex="1" parent="2qr27qubsBFa9_mdYsr5-76">
          <mxGeometry x="99.00000000000001" y="19.124999999999996" as="geometry">
            <mxPoint x="8" y="2" as="offset" />
          </mxGeometry>
        </mxCell>
        <mxCell id="2qr27qubsBFa9_mdYsr5-78" value="Edit user profile" style="ellipse;whiteSpace=wrap;html=1;" vertex="1" parent="2qr27qubsBFa9_mdYsr5-2">
          <mxGeometry x="320" y="450" width="140" height="70" as="geometry" />
        </mxCell>
        <mxCell id="2qr27qubsBFa9_mdYsr5-79" value="&amp;lt;&amp;lt;extend&amp;gt;&amp;gt;" style="edgeStyle=none;html=1;startArrow=open;endArrow=none;startSize=12;verticalAlign=bottom;dashed=1;labelBackgroundColor=none;rounded=0;entryX=0;entryY=0.5;entryDx=0;entryDy=0;exitX=0.919;exitY=0.733;exitDx=0;exitDy=0;exitPerimeter=0;" edge="1" parent="2qr27qubsBFa9_mdYsr5-2" source="2qr27qubsBFa9_mdYsr5-76" target="2qr27qubsBFa9_mdYsr5-78">
          <mxGeometry width="160" relative="1" as="geometry">
            <mxPoint x="230" y="430" as="sourcePoint" />
            <mxPoint x="481" y="566" as="targetPoint" />
          </mxGeometry>
        </mxCell>
        <mxCell id="2qr27qubsBFa9_mdYsr5-81" value="&amp;lt;&amp;lt;extend&amp;gt;&amp;gt;" style="edgeStyle=none;html=1;startArrow=open;endArrow=none;startSize=12;verticalAlign=bottom;dashed=1;labelBackgroundColor=none;rounded=0;entryX=0;entryY=0.5;entryDx=0;entryDy=0;exitX=1;exitY=0.5;exitDx=0;exitDy=0;exitPerimeter=0;" edge="1" parent="2qr27qubsBFa9_mdYsr5-2" source="2qr27qubsBFa9_mdYsr5-73" target="2qr27qubsBFa9_mdYsr5-13">
          <mxGeometry width="160" relative="1" as="geometry">
            <mxPoint x="224" y="456" as="sourcePoint" />
            <mxPoint x="330" y="495" as="targetPoint" />
          </mxGeometry>
        </mxCell>
        <mxCell id="2qr27qubsBFa9_mdYsr5-23" value="" style="edgeStyle=none;html=1;endArrow=none;verticalAlign=bottom;rounded=0;entryX=0;entryY=0.5;entryDx=0;entryDy=0;" edge="1" parent="1" source="2qr27qubsBFa9_mdYsr5-1" target="2qr27qubsBFa9_mdYsr5-11">
          <mxGeometry width="160" relative="1" as="geometry">
            <mxPoint x="130" y="240" as="sourcePoint" />
            <mxPoint x="310" y="290" as="targetPoint" />
          </mxGeometry>
        </mxCell>
        <mxCell id="2qr27qubsBFa9_mdYsr5-24" value="" style="edgeStyle=none;html=1;endArrow=none;verticalAlign=bottom;rounded=0;entryX=0;entryY=0.5;entryDx=0;entryDy=0;entryPerimeter=0;" edge="1" parent="1" source="2qr27qubsBFa9_mdYsr5-1" target="2qr27qubsBFa9_mdYsr5-20">
          <mxGeometry width="160" relative="1" as="geometry">
            <mxPoint x="130" y="240" as="sourcePoint" />
            <mxPoint x="310" y="290" as="targetPoint" />
          </mxGeometry>
        </mxCell>
        <mxCell id="2qr27qubsBFa9_mdYsr5-25" value="" style="edgeStyle=none;html=1;endArrow=none;verticalAlign=bottom;rounded=0;entryX=0;entryY=0.5;entryDx=0;entryDy=0;entryPerimeter=0;" edge="1" parent="1" source="2qr27qubsBFa9_mdYsr5-1" target="2qr27qubsBFa9_mdYsr5-70">
          <mxGeometry width="160" relative="1" as="geometry">
            <mxPoint x="130" y="240" as="sourcePoint" />
            <mxPoint x="202.94000000000005" y="222" as="targetPoint" />
          </mxGeometry>
        </mxCell>
        <mxCell id="2qr27qubsBFa9_mdYsr5-26" value="" style="edgeStyle=none;html=1;endArrow=none;verticalAlign=bottom;rounded=0;entryX=0;entryY=0.5;entryDx=0;entryDy=0;entryPerimeter=0;" edge="1" parent="1" source="2qr27qubsBFa9_mdYsr5-1" target="2qr27qubsBFa9_mdYsr5-76">
          <mxGeometry width="160" relative="1" as="geometry">
            <mxPoint x="130" y="240" as="sourcePoint" />
            <mxPoint x="215" y="375" as="targetPoint" />
          </mxGeometry>
        </mxCell>
        <mxCell id="2qr27qubsBFa9_mdYsr5-29" value="" style="edgeStyle=none;html=1;endArrow=none;verticalAlign=bottom;rounded=0;entryX=0;entryY=0.5;entryDx=0;entryDy=0;entryPerimeter=0;" edge="1" parent="1" source="2qr27qubsBFa9_mdYsr5-1" target="2qr27qubsBFa9_mdYsr5-73">
          <mxGeometry width="160" relative="1" as="geometry">
            <mxPoint x="130" y="240" as="sourcePoint" />
            <mxPoint x="235" y="475" as="targetPoint" />
          </mxGeometry>
        </mxCell>
        <mxCell id="2qr27qubsBFa9_mdYsr5-31" value="" style="edgeStyle=none;html=1;endArrow=none;verticalAlign=bottom;rounded=0;entryX=0;entryY=0.5;entryDx=0;entryDy=0;entryPerimeter=0;" edge="1" parent="1" source="2qr27qubsBFa9_mdYsr5-1" target="2qr27qubsBFa9_mdYsr5-35">
          <mxGeometry width="160" relative="1" as="geometry">
            <mxPoint x="130" y="240" as="sourcePoint" />
            <mxPoint x="310" y="390" as="targetPoint" />
          </mxGeometry>
        </mxCell>
        <mxCell id="2qr27qubsBFa9_mdYsr5-38" value="Geolocation API" style="shape=umlActor;verticalLabelPosition=bottom;verticalAlign=top;html=1;" vertex="1" parent="1">
          <mxGeometry x="780" y="425" width="30" height="60" as="geometry" />
        </mxCell>
        <mxCell id="2qr27qubsBFa9_mdYsr5-39" value="" style="edgeStyle=none;html=1;endArrow=none;verticalAlign=bottom;rounded=0;exitX=1;exitY=0.5;exitDx=0;exitDy=0;" edge="1" parent="1" source="2qr27qubsBFa9_mdYsr5-37" target="2qr27qubsBFa9_mdYsr5-38">
          <mxGeometry width="160" relative="1" as="geometry">
            <mxPoint x="330" y="330" as="sourcePoint" />
            <mxPoint x="490" y="330" as="targetPoint" />
          </mxGeometry>
        </mxCell>
        <mxCell id="2qr27qubsBFa9_mdYsr5-40" value="Google Maps API" style="shape=umlActor;html=1;verticalLabelPosition=bottom;verticalAlign=top;align=center;" vertex="1" parent="1">
          <mxGeometry x="780" y="215" width="30" height="60" as="geometry" />
        </mxCell>
        <mxCell id="2qr27qubsBFa9_mdYsr5-43" value="NEA Weather API" style="shape=umlActor;html=1;verticalLabelPosition=bottom;verticalAlign=top;align=center;" vertex="1" parent="1">
          <mxGeometry x="780" y="805" width="30" height="60" as="geometry" />
        </mxCell>
        <mxCell id="2qr27qubsBFa9_mdYsr5-44" value="" style="edgeStyle=none;html=1;endArrow=none;verticalAlign=bottom;rounded=0;entryX=1;entryY=0.5;entryDx=0;entryDy=0;" edge="1" parent="1" source="2qr27qubsBFa9_mdYsr5-40" target="2qr27qubsBFa9_mdYsr5-41">
          <mxGeometry width="160" relative="1" as="geometry">
            <mxPoint x="330" y="370" as="sourcePoint" />
            <mxPoint x="490" y="370" as="targetPoint" />
          </mxGeometry>
        </mxCell>
        <mxCell id="2qr27qubsBFa9_mdYsr5-45" value="" style="edgeStyle=none;html=1;endArrow=none;verticalAlign=bottom;rounded=0;entryX=1;entryY=0.5;entryDx=0;entryDy=0;" edge="1" parent="1" source="2qr27qubsBFa9_mdYsr5-43" target="2qr27qubsBFa9_mdYsr5-42">
          <mxGeometry width="160" relative="1" as="geometry">
            <mxPoint x="330" y="370" as="sourcePoint" />
            <mxPoint x="490" y="370" as="targetPoint" />
          </mxGeometry>
        </mxCell>
        <mxCell id="2qr27qubsBFa9_mdYsr5-47" value="" style="edgeStyle=none;html=1;endArrow=none;verticalAlign=bottom;rounded=0;entryX=0;entryY=0.5;entryDx=0;entryDy=0;" edge="1" parent="1" source="2qr27qubsBFa9_mdYsr5-1" target="2qr27qubsBFa9_mdYsr5-46">
          <mxGeometry width="160" relative="1" as="geometry">
            <mxPoint x="130" y="240" as="sourcePoint" />
            <mxPoint x="490" y="560" as="targetPoint" />
          </mxGeometry>
        </mxCell>
      </root>
    </mxGraphModel>
  </diagram>
</mxfile>
